<?xml version="1.0" standalone="no"?>
<svg xmlns:xlink="http://www.w3.org/1999/xlink" id="wave" style="transform:rotate(180deg); transition: 0.3s" viewBox="0 0 1440 180" version="1.1" xmlns="http://www.w3.org/2000/svg"><defs><linearGradient id="sw-gradient-0" x1="0" x2="0" y1="1" y2="0"><stop stop-color="rgba(128, 0, 255, 1)" offset="0%"/><stop stop-color="rgba(56.406, 17.422, 95.084, 1)" offset="100%"/></linearGradient></defs><path style="transform:translate(0, 0px); opacity:1" fill="url(#sw-gradient-0)" d="M0,108L18.5,111C36.9,114,74,120,111,108C147.7,96,185,66,222,54C258.5,42,295,48,332,63C369.2,78,406,102,443,111C480,120,517,114,554,99C590.8,84,628,60,665,69C701.5,78,738,120,775,117C812.3,114,849,66,886,45C923.1,24,960,30,997,33C1033.8,36,1071,36,1108,48C1144.6,60,1182,84,1218,81C1255.4,78,1292,48,1329,30C1366.2,12,1403,6,1440,27C1476.9,48,1514,96,1551,120C1587.7,144,1625,144,1662,144C1698.5,144,1735,144,1772,138C1809.2,132,1846,120,1883,102C1920,84,1957,60,1994,66C2030.8,72,2068,108,2105,123C2141.5,138,2178,132,2215,120C2252.3,108,2289,90,2326,81C2363.1,72,2400,72,2437,69C2473.8,66,2511,60,2548,72C2584.6,84,2622,114,2640,129L2658.5,144L2658.5,180L2640,180C2621.5,180,2585,180,2548,180C2510.8,180,2474,180,2437,180C2400,180,2363,180,2326,180C2289.2,180,2252,180,2215,180C2178.5,180,2142,180,2105,180C2067.7,180,2031,180,1994,180C1956.9,180,1920,180,1883,180C1846.2,180,1809,180,1772,180C1735.4,180,1698,180,1662,180C1624.6,180,1588,180,1551,180C1513.8,180,1477,180,1440,180C1403.1,180,1366,180,1329,180C1292.3,180,1255,180,1218,180C1181.5,180,1145,180,1108,180C1070.8,180,1034,180,997,180C960,180,923,180,886,180C849.2,180,812,180,775,180C738.5,180,702,180,665,180C627.7,180,591,180,554,180C516.9,180,480,180,443,180C406.2,180,369,180,332,180C295.4,180,258,180,222,180C184.6,180,148,180,111,180C73.8,180,37,180,18,180L0,180Z"/></svg>