<?xml version="1.0" encoding="UTF-8"?>
<!DOCTYPE svg PUBLIC "-//W3C//DTD SVG 1.1//EN" "http://www.w3.org/Graphics/SVG/1.1/DTD/svg11.dtd">
<!-- Creator: CorelDRAW X7 -->
<svg xmlns="http://www.w3.org/2000/svg" xml:space="preserve" width="1000px" height="1000px" version="1.1" style="shape-rendering:geometricPrecision; text-rendering:geometricPrecision; image-rendering:optimizeQuality; fill-rule:evenodd; clip-rule:evenodd"
viewBox="0 0 1000 1000"
 xmlns:xlink="http://www.w3.org/1999/xlink">
 <defs>
  <style type="text/css">
   <![CDATA[
    .str0 {stroke:black;stroke-width:0.900001}
    .fil0 {fill:black}
    .fil1 {fill:#31375F}
   ]]>
  </style>
 </defs>
 <g id="Layer_x0020_1">
  <metadata id="CorelCorpID_0Corel-Layer"/>
  <path class="fil0 str0" d="M237 100l4 5 4 6 6 4c30,7 147,3 188,2 61,0 154,-21 131,55 -57,29 -343,-9 -372,19l-5 5 -5 5 -4 5 -5 4c-27,35 -44,57 -64,106 -17,41 -29,87 -32,135 36,2 105,-12 108,30 3,47 -70,34 -107,35 0,59 13,124 34,172 19,43 59,107 83,127 62,6 144,2 208,2 19,0 60,-2 96,0 41,1 76,6 70,38 -7,33 -44,25 -77,25 -85,0 -245,-4 -316,1 -38,21 -31,64 24,65 45,1 93,0 139,0 77,-1 111,45 242,35 166,-12 289,-112 349,-206 91,-142 10,-118 -72,-118 -230,-1 -97,-2 -216,58 -153,77 -295,-43 -308,-197 1,-40 1,-61 1,-68 0,-120 173,-257 331,-148 31,22 28,40 73,41 45,0 193,4 224,-5 25,-50 -52,-141 -88,-180 -43,-45 -98,-89 -177,-115 -80,-26 -163,-34 -249,-15 -34,12 -25,17 -46,20 -12,3 -50,1 -74,1 -47,0 -110,-9 -98,51z"/>
  <path class="fil0 str0" d="M58 117c55,0 104,4 128,-5 29,-12 31,-40 2,-54 -20,-10 -57,-8 -106,-8 -31,0 -59,-4 -66,23 -8,29 14,44 42,44z"/>
  <path class="fil0 str0" d="M34 753c-38,12 -19,48 -11,55 11,9 57,11 75,5 43,-15 18,-88 -64,-60z"/>
  <path class="fil0 str0" d="M63 944c28,0 59,2 57,-32 -1,-27 -25,-32 -52,-32 -71,-2 -79,64 -5,64z"/>
  <path class="fil0 str0" d="M63 253c28,0 59,2 57,-32 -1,-28 -25,-32 -52,-32 -71,-2 -79,64 -5,64z"/>
  <path class="fil1" d="M-5987 482c104,-22 134,142 32,163 -105,23 -138,-141 -32,-163zm-65 -55c0,-76 15,-159 -47,-144 -42,11 -29,101 -28,167 1,94 -24,233 117,268 183,45 272,-213 110,-297 -21,-11 -52,-18 -79,-17 -35,2 -54,20 -73,23z"/>
  <path class="fil1" d="M-6713 426c1,-19 3,-106 -2,-120 -11,-34 -59,-30 -70,1 -7,18 -2,302 -3,364 -1,66 59,49 69,35 30,-40 -25,-170 37,-213 29,-19 65,-19 89,4 48,48 -3,183 33,213 15,12 64,22 64,-47 -1,-87 22,-229 -114,-257 -49,-9 -67,5 -103,20z"/>
  <path class="fil1" d="M-6430 411c-33,10 -25,41 -24,81 1,91 -17,180 91,221 29,11 61,12 92,3 105,-30 104,-123 104,-212 0,-30 7,-75 -14,-90 -28,-18 -61,-4 -63,32 -3,54 13,156 -21,185 -27,22 -113,35 -115,-64 -1,-73 17,-178 -50,-156z"/>
  <path class="fil1" d="M-7018 511c-30,12 -41,71 22,74 20,1 127,1 140,-3 29,-10 39,-72 -23,-75 -23,-1 -124,-3 -139,4z"/>
  <g id="_1615165934848">
   <path class="fil0 str0" d="M1668 490c35,-7 45,48 11,55 -36,8 -47,-47 -11,-55zm-22 -18c0,-26 5,-54 -16,-49 -14,4 -10,34 -9,56 0,32 -8,79 39,91 62,15 92,-72 37,-101 -7,-3 -17,-6 -26,-5 -12,1 -19,7 -25,8z"/>
   <path class="fil0 str0" d="M1423 471c0,-6 1,-36 -1,-40 -4,-12 -20,-10 -24,0 -2,6 0,102 0,123 -1,22 20,17 23,12 10,-14 -9,-58 12,-72 10,-7 22,-7 30,1 16,16 -1,62 11,72 5,4 22,8 22,-16 0,-29 8,-77 -38,-86 -17,-4 -23,1 -35,6z"/>
   <path class="fil0 str0" d="M1518 466c-11,4 -8,14 -8,27 0,31 -5,61 31,75 10,4 21,4 31,1 36,-10 35,-41 35,-71 0,-11 2,-26 -5,-31 -9,-6 -20,-1 -21,11 -1,18 5,53 -7,62 -9,8 -38,12 -39,-21 0,-25 6,-60 -17,-53z"/>
   <path class="fil0 str0" d="M1320 500c-10,4 -14,24 7,25 7,0 43,0 48,-1 9,-3 13,-24 -8,-25 -8,-1 -42,-1 -47,1z"/>
  </g>
 </g>
</svg>
