<?xml version="1.0" encoding="UTF-8"?>
<!DOCTYPE svg PUBLIC "-//W3C//DTD SVG 1.1//EN" "http://www.w3.org/Graphics/SVG/1.1/DTD/svg11.dtd">
<svg xmlns="http://www.w3.org/2000/svg" version="1.1" width="2000px" height="576px" style="shape-rendering:geometricPrecision; text-rendering:geometricPrecision; image-rendering:optimizeQuality; fill-rule:evenodd; clip-rule:evenodd" xmlns:xlink="http://www.w3.org/1999/xlink">
<g><path style="opacity:0.262" fill="#141414" d="M 312.5,29.5 C 295.5,29.5 278.5,29.5 261.5,29.5C 278.5,26.8333 295.5,26.8333 312.5,29.5 Z"/></g>
<g><path style="opacity:0.986" fill="#000001" d="M 261.5,29.5 C 278.5,29.5 295.5,29.5 312.5,29.5C 388.551,39.5012 447.551,76.3345 489.5,140C 489.167,140.333 488.833,140.667 488.5,141C 498.084,153.84 504.418,168.174 507.5,184C 506.05,188.465 503.383,192.131 499.5,195C 457.5,195.667 415.5,195.667 373.5,195C 329.847,149.114 280.18,141.448 224.5,172C 198.047,191.81 182.047,217.644 176.5,249.5C 177.007,252.43 178.84,253.763 182,253.5C 199.82,252.395 217.653,252.228 235.5,253C 245.802,253.91 251.135,259.577 251.5,270C 250.753,278.859 246.087,284.192 237.5,286C 216.33,286.021 195.33,286.188 174.5,286.5C 176.048,338.639 201.048,375.473 249.5,397C 284.318,407.919 317.318,403.919 348.5,385C 358.584,377.63 367.918,369.464 376.5,360.5C 416.833,361.833 457.167,361.833 497.5,360.5C 502.453,363.128 506.12,367.128 508.5,372.5C 498.988,401.194 484.155,426.86 464,449.5C 424.604,490.617 376.771,516.117 320.5,526C 292.146,529.273 264.146,527.607 236.5,521C 223.957,518.533 211.957,514.533 200.5,509C 165.167,508.667 129.833,508.333 94.5,508C 84.2928,502.378 81.4595,494.211 86,483.5C 88.9233,480.289 92.4233,477.956 96.5,476.5C 128.332,477.167 160.332,477.5 192.5,477.5C 224.84,477.5 256.84,476.833 288.5,475.5C 294.477,474.19 298.144,470.523 299.5,464.5C 300.777,463.306 301.444,461.64 301.5,459.5C 301.493,457.631 301.16,455.964 300.5,454.5C 300.5,453.833 300.167,453.5 299.5,453.5C 298.558,449.91 296.558,447.243 293.5,445.5C 292.547,443.39 290.881,442.223 288.5,442C 227.834,441.5 167.168,441.333 106.5,441.5C 105.833,441.5 105.167,441.5 104.5,441.5C 85.1218,418.296 69.4551,392.129 57.5,363C 57.8333,362.667 58.1667,362.333 58.5,362C 52.9921,349.459 49.4921,336.293 48,322.5C 46.1337,310.906 45.3004,299.24 45.5,287.5C 59.8372,287.667 74.1705,287.5 88.5,287C 92.8445,285.819 96.1779,283.319 98.5,279.5C 99.4552,277.254 100.122,274.921 100.5,272.5C 100.5,272.167 100.5,271.833 100.5,271.5C 101.833,269.5 101.833,267.5 100.5,265.5C 100.5,265.167 100.5,264.833 100.5,264.5C 98.7472,258.246 94.7472,254.079 88.5,252C 73.8371,251.5 59.1705,251.333 44.5,251.5C 48.2783,213.131 60.445,177.464 81,144.5C 88.9462,134.246 97.1129,124.246 105.5,114.5C 165.507,114.751 225.507,114.251 285.5,113C 286.737,112.768 287.737,112.268 288.5,111.5C 290.167,110.833 291.833,110.167 293.5,109.5C 296.277,107.049 298.277,104.049 299.5,100.5C 299.5,100.167 299.5,99.8333 299.5,99.5C 300.634,97.0336 300.801,94.367 300,91.5C 298.621,85.0255 294.787,81.0255 288.5,79.5C 288.167,79.5 287.833,79.5 287.5,79.5C 287.389,78.8826 287.056,78.3826 286.5,78C 277.667,77.8333 268.833,77.6667 260,77.5C 217.837,78.3233 175.671,78.6566 133.5,78.5C 124.266,72.9513 121.433,64.9513 125,54.5C 126.833,51.3333 129.333,48.8333 132.5,47C 155.77,45.6968 179.104,45.0302 202.5,45C 205.115,44.1452 207.448,42.8119 209.5,41C 218.326,39.2807 226.992,36.9474 235.5,34C 243.929,31.5495 252.595,30.0495 261.5,29.5 Z"/></g>
<g><path style="opacity:0.997" fill="#010101" d="M 872.5,215.5 C 890.654,216.833 909.154,217.5 928,217.5C 946.67,217.5 965.17,217.167 983.5,216.5C 988.068,214.439 991.568,211.106 994,206.5C 994.008,150.417 994.675,94.4174 996,38.5C 997.558,36.6411 999.391,35.1411 1001.5,34C 1041.17,33.3333 1080.83,33.3333 1120.5,34C 1123.29,35.7742 1125.13,38.2742 1126,41.5C 1126.5,111.499 1126.67,181.499 1126.5,251.5C 1125.83,251.5 1125.17,251.5 1124.5,251.5C 1067.49,250.837 1010.82,251.504 954.5,253.5C 952.847,253.66 951.514,254.326 950.5,255.5C 949.833,256.833 948.833,257.833 947.5,258.5C 941.812,264.33 941.146,270.664 945.5,277.5C 946.338,277.842 946.672,278.508 946.5,279.5C 946.427,281.027 947.094,282.027 948.5,282.5C 948.833,282.5 949.167,282.5 949.5,282.5C 949.5,283.833 950.167,284.5 951.5,284.5C 952.842,285.793 954.509,286.626 956.5,287C 1012.5,287.5 1068.5,287.667 1124.5,287.5C 1125.5,362.762 1125.83,438.096 1125.5,513.5C 1125.66,514.873 1125.49,516.207 1125,517.5C 1122.93,519.452 1120.76,521.285 1118.5,523C 1079.5,523.667 1040.5,523.667 1001.5,523C 998.632,521.465 996.465,519.299 995,516.5C 994.667,460.833 994.333,405.167 994,349.5C 992.167,347 990.333,344.5 988.5,342C 986.846,341.392 985.179,340.892 983.5,340.5C 965.003,339.833 946.336,339.5 927.5,339.5C 908.488,339.5 889.821,340.167 871.5,341.5C 870.127,341.343 868.793,341.51 867.5,342C 866.023,344.445 864.19,346.612 862,348.5C 861.667,404.5 861.333,460.5 861,516.5C 858.833,518.667 856.667,520.833 854.5,523C 815.167,523.667 775.833,523.667 736.5,523C 733.531,520.56 731.198,517.727 729.5,514.5C 730.499,439.002 730.833,363.335 730.5,287.5C 739.506,287.666 748.506,287.5 757.5,287C 759.949,286.275 762.283,285.275 764.5,284C 765.823,283.184 766.489,282.017 766.5,280.5C 769.212,277.224 770.878,273.391 771.5,269C 770.411,265.075 768.911,261.242 767,257.5C 766.329,256.748 765.496,256.414 764.5,256.5C 763.5,256.167 762.833,255.5 762.5,254.5C 761.653,253.034 760.32,252.2 758.5,252C 748.839,251.5 739.172,251.334 729.5,251.5C 729.5,250.833 729.5,250.167 729.5,249.5C 730.499,179.669 730.833,109.669 730.5,39.5C 732.331,37.2243 734.664,35.391 737.5,34C 776.5,33.3333 815.5,33.3333 854.5,34C 856.609,35.1411 858.442,36.6411 860,38.5C 861.325,95.0841 861.992,151.751 862,208.5C 864.647,212.348 868.147,214.681 872.5,215.5 Z"/></g>
<g><path style="opacity:0.992" fill="#000001" d="M 1295.5,251.5 C 1294.83,251.5 1294.17,251.5 1293.5,251.5C 1249.83,251.5 1206.17,251.5 1162.5,251.5C 1162.33,180.833 1162.5,110.166 1163,39.5C 1164.87,37.2911 1167.04,35.4578 1169.5,34C 1208.5,33.3333 1247.5,33.3333 1286.5,34C 1289.62,35.4488 1292.12,37.6155 1294,40.5C 1294.17,110.904 1294.67,181.237 1295.5,251.5 Z"/></g>
<g><path style="opacity:0.994" fill="#000101" d="M 1557.5,41.5 C 1556.2,112.342 1556.2,183.342 1557.5,254.5C 1557.38,287.678 1557.38,320.678 1557.5,353.5C 1544.65,433.84 1500.32,488.674 1424.5,518C 1414.71,520.291 1405.04,522.957 1395.5,526C 1390.17,526.567 1384.83,527.067 1379.5,527.5C 1367.5,527.471 1355.5,527.471 1343.5,527.5C 1274.15,519.974 1221.82,485.974 1186.5,425.5C 1174.31,402.688 1166.81,378.688 1164,353.5C 1162.73,331.519 1162.23,309.519 1162.5,287.5C 1206.5,287.5 1250.5,287.5 1294.5,287.5C 1294.1,309.863 1294.6,332.196 1296,354.5C 1296.74,357.501 1297.9,360.168 1299.5,362.5C 1299.12,364.698 1299.79,366.365 1301.5,367.5C 1302.92,370.009 1304.59,372.343 1306.5,374.5C 1306.74,376.404 1307.74,377.738 1309.5,378.5C 1310.78,380.452 1312.45,382.118 1314.5,383.5C 1314.51,385.017 1315.18,386.184 1316.5,387C 1321.4,390.947 1326.73,394.114 1332.5,396.5C 1336.82,397.828 1341.15,399.161 1345.5,400.5C 1347.1,402.074 1349.1,402.741 1351.5,402.5C 1359.17,402.666 1366.84,402.5 1374.5,402C 1375.74,401.768 1376.74,401.268 1377.5,400.5C 1377.83,400.5 1378.17,400.5 1378.5,400.5C 1381.72,400.655 1384.38,399.655 1386.5,397.5C 1388.67,397.25 1390.34,396.25 1391.5,394.5C 1394.24,393.612 1396.91,392.445 1399.5,391C 1405.4,386.599 1410.4,381.432 1414.5,375.5C 1415.91,375.027 1416.57,374.027 1416.5,372.5C 1417.91,372.027 1418.57,371.027 1418.5,369.5C 1418.56,368.391 1418.89,367.391 1419.5,366.5C 1420.75,366.423 1421.58,365.756 1422,364.5C 1422.5,362.527 1422.66,360.527 1422.5,358.5C 1423.65,358.209 1424.32,357.376 1424.5,356C 1425.16,353.538 1425.49,351.038 1425.5,348.5C 1426.5,328.34 1426.83,308.007 1426.5,287.5C 1431.26,287.774 1435.93,287.441 1440.5,286.5C 1444.7,286.81 1448.7,286.143 1452.5,284.5C 1454.59,283.415 1455.92,281.749 1456.5,279.5C 1460.09,274.916 1461.25,269.583 1460,263.5C 1459.05,261.907 1457.88,260.574 1456.5,259.5C 1455.14,257.473 1453.47,255.806 1451.5,254.5C 1449.85,253.073 1447.85,252.24 1445.5,252C 1439.51,251.501 1433.51,251.334 1427.5,251.5C 1427.71,182.513 1427.71,113.513 1427.5,44.5C 1427.34,42.4727 1427.5,40.4727 1428,38.5C 1430.08,36.8767 1432.25,35.3767 1434.5,34C 1473.17,33.3333 1511.83,33.3333 1550.5,34C 1553.72,35.7155 1556.05,38.2155 1557.5,41.5 Z"/></g>
<g><path style="opacity:0.266" fill="#0c0b0c" d="M 1804.5,33.5 C 1790.84,34.3895 1777,35.0562 1763,35.5C 1709.11,35.1879 1655.28,35.1879 1601.5,35.5C 1601.61,34.8826 1601.94,34.3826 1602.5,34C 1669.83,33.5 1737.17,33.3333 1804.5,33.5 Z"/></g>
<g><path style="opacity:0.994" fill="#000101" d="M 1804.5,33.5 C 1843.99,28.6371 1881.66,34.4705 1917.5,51C 1977.92,87.8645 2000.08,140.698 1984,209.5C 1978.22,226.254 1969.05,240.754 1956.5,253C 1954.14,254.511 1951.81,256.011 1949.5,257.5C 1948.5,257.5 1947.5,257.5 1946.5,257.5C 1946.08,256.778 1945.42,256.278 1944.5,256C 1917.66,255.17 1891,255.336 1864.5,256.5C 1863.08,256.709 1861.74,257.209 1860.5,258C 1857.63,260.24 1855.63,263.074 1854.5,266.5C 1852.97,267.492 1852.31,268.992 1852.5,271C 1852.51,272.385 1852.85,273.551 1853.5,274.5C 1854.11,276.434 1855.11,278.101 1856.5,279.5C 1858.17,283.167 1860.83,285.833 1864.5,287.5C 1864.61,288.117 1864.94,288.617 1865.5,289C 1890.83,289.5 1916.16,289.667 1941.5,289.5C 1949,293.487 1955.5,298.82 1961,305.5C 1987.82,338.729 1995.66,376.229 1984.5,418C 1984.83,418.333 1985.17,418.667 1985.5,419C 1965.88,476.121 1926.21,510.121 1866.5,521C 1848.54,523.24 1830.7,524.407 1813,524.5C 1742.9,523.668 1672.74,523.168 1602.5,523C 1599.09,521.923 1596.59,519.756 1595,516.5C 1594.5,440.167 1594.33,363.834 1594.5,287.5C 1607.17,287.667 1619.84,287.5 1632.5,287C 1635.8,286.513 1638.47,285.013 1640.5,282.5C 1641.17,281.5 1641.83,280.5 1642.5,279.5C 1643.75,279.423 1644.58,278.756 1645,277.5C 1646.89,272.487 1646.89,267.487 1645,262.5C 1644.62,261.944 1644.12,261.611 1643.5,261.5C 1643.57,259.973 1642.91,258.973 1641.5,258.5C 1640.42,256.413 1638.75,255.08 1636.5,254.5C 1622.54,253.552 1608.54,253.219 1594.5,253.5C 1594.33,182.499 1594.5,111.499 1595,40.5C 1596.47,37.8579 1598.64,36.1912 1601.5,35.5C 1655.28,35.1879 1709.11,35.1879 1763,35.5C 1777,35.0562 1790.84,34.3895 1804.5,33.5 Z M 1827.5,145.5 C 1833.32,146.945 1838.99,149.111 1844.5,152C 1848.78,155.767 1852.44,159.934 1855.5,164.5C 1856.61,167.733 1857.44,171.066 1858,174.5C 1858.38,175.056 1858.88,175.389 1859.5,175.5C 1859.1,181.912 1858.1,188.245 1856.5,194.5C 1853.44,198.745 1850.1,202.912 1846.5,207C 1843.41,209.419 1839.91,210.919 1836,211.5C 1834.97,211.836 1834.47,212.503 1834.5,213.5C 1799.83,213.667 1765.17,213.5 1730.5,213C 1728.65,211.248 1726.65,209.748 1724.5,208.5C 1724.33,188.831 1724.5,169.164 1725,149.5C 1726.77,148.696 1728.27,147.529 1729.5,146C 1762.16,145.5 1794.83,145.333 1827.5,145.5 Z M 1747.5,256.5 C 1749.36,258.883 1750.69,261.55 1751.5,264.5C 1752.4,265.209 1752.74,266.209 1752.5,267.5C 1753.15,271.281 1752.48,274.947 1750.5,278.5C 1750.5,279.167 1750.17,279.5 1749.5,279.5C 1748.71,280.794 1747.71,281.961 1746.5,283C 1742.6,284.281 1738.6,285.114 1734.5,285.5C 1722.18,284.748 1709.85,284.248 1697.5,284C 1696.1,283.59 1694.77,283.09 1693.5,282.5C 1685.23,275.401 1684.39,267.401 1691,258.5C 1692.49,256.84 1694.32,255.84 1696.5,255.5C 1712.09,254.35 1727.76,254.183 1743.5,255C 1744.74,255.791 1746.08,256.291 1747.5,256.5 Z M 1858.5,384.5 C 1855.37,392.17 1850.37,398.67 1843.5,404C 1838.82,406.617 1833.82,408.117 1828.5,408.5C 1794.75,408.986 1761.08,408.486 1727.5,407C 1726.3,406.097 1725.47,404.931 1725,403.5C 1724.5,385.17 1724.33,366.836 1724.5,348.5C 1724.5,348.167 1724.5,347.833 1724.5,347.5C 1726.5,345.833 1728.5,344.167 1730.5,342.5C 1763.5,341.547 1796.5,341.38 1829.5,342C 1847.96,345.794 1857.96,357.127 1859.5,376C 1859.73,378.671 1859.06,381.004 1857.5,383C 1858.06,383.383 1858.39,383.883 1858.5,384.5 Z"/></g>
<g><path style="opacity:0.945" fill="#010101" d="M 22.5,45.5 C 45.2194,45.0423 67.8861,45.5423 90.5,47C 100.493,53.1381 102.66,61.3048 97,71.5C 95.0395,74.1353 92.5395,75.9686 89.5,77C 74.6686,77.5595 59.8353,78.0595 45,78.5C 36.7984,78.5041 28.6317,78.0041 20.5,77C 13.0351,74.5915 9.03513,69.4248 8.5,61.5C 9.49748,52.7767 14.1641,47.4434 22.5,45.5 Z"/></g>
<g><path style="opacity:0.179" fill="#1c1b1c" d="M 1557.5,41.5 C 1558.48,112.148 1558.82,182.815 1558.5,253.5C 1558.5,254.167 1558.17,254.5 1557.5,254.5C 1556.2,183.342 1556.2,112.342 1557.5,41.5 Z"/></g>
<g><path style="opacity:1" fill="#252c13" d="M 287.5,79.5 C 235.997,79.8322 184.664,79.4989 133.5,78.5C 175.671,78.6566 217.837,78.3233 260,77.5C 268.833,77.6667 277.667,77.8333 286.5,78C 287.056,78.3826 287.389,78.8826 287.5,79.5 Z"/></g>
<g><path style="opacity:0.53" fill="#171718" d="M 730.5,39.5 C 730.833,109.669 730.499,179.669 729.5,249.5C 729.649,192.497 729.316,135.497 728.5,78.5C 728.667,66.1667 728.833,53.8333 729,41.5C 729.278,40.5842 729.778,39.9175 730.5,39.5 Z"/></g>
<g><path style="opacity:0.484" fill="#2e3916" d="M 288.5,79.5 C 294.787,81.0255 298.621,85.0255 300,91.5C 300.801,94.367 300.634,97.0336 299.5,99.5C 299.437,94.536 297.937,89.536 295,84.5C 292.648,82.9697 290.481,81.3031 288.5,79.5 Z"/></g>
<g><path style="opacity:0.345" fill="#2a3515" d="M 299.5,100.5 C 298.277,104.049 296.277,107.049 293.5,109.5C 294.791,105.903 296.791,102.903 299.5,100.5 Z"/></g>
<g><path style="opacity:0.518" fill="#2d3416" d="M 288.5,111.5 C 287.737,112.268 286.737,112.768 285.5,113C 225.507,114.251 165.507,114.751 105.5,114.5C 166.158,112.568 227.158,111.568 288.5,111.5 Z"/></g>
<g><path style="opacity:0.93" fill="#020202" d="M 25.5,113.5 C 32.1509,113.616 38.6509,113.616 45,113.5C 59.6613,118.152 63.9947,127.485 58,141.5C 51.3746,146.962 43.708,148.962 35,147.5C 26.4149,148.976 18.9149,146.976 12.5,141.5C 6.11891,131.929 7.45225,123.595 16.5,116.5C 19.5149,115.182 22.5149,114.182 25.5,113.5 Z"/></g>
<g><path style="opacity:0.378" fill="#7a7a7a" d="M 1833.5,145.5 C 1831.5,145.5 1829.5,145.5 1827.5,145.5C 1794.83,145.333 1762.16,145.5 1729.5,146C 1728.27,147.529 1726.77,148.696 1725,149.5C 1724.5,169.164 1724.33,188.831 1724.5,208.5C 1723.17,208.5 1722.5,207.833 1722.5,206.5C 1722.19,187.454 1722.53,168.454 1723.5,149.5C 1724.63,147.871 1725.96,146.371 1727.5,145C 1763,144.169 1798.34,144.336 1833.5,145.5 Z"/></g>
<g><path style="opacity:0.029" fill="#0b0c0c" d="M 1427.5,44.5 C 1427.71,113.513 1427.71,182.513 1427.5,251.5C 1427.17,251.5 1426.83,251.5 1426.5,251.5C 1426.34,182.343 1426.67,113.343 1427.5,44.5 Z"/></g>
<g><path style="opacity:1" fill="#3a3b3b" d="M 1838.5,146.5 C 1840.03,146.427 1841.03,147.094 1841.5,148.5C 1839.97,148.573 1838.97,147.906 1838.5,146.5 Z"/></g>
<g><path style="opacity:0.655" fill="#858887" d="M 1827.5,145.5 C 1829.5,145.5 1831.5,145.5 1833.5,145.5C 1835.12,146.038 1836.78,146.371 1838.5,146.5C 1838.97,147.906 1839.97,148.573 1841.5,148.5C 1847.85,152.518 1852.85,157.852 1856.5,164.5C 1856.17,164.5 1855.83,164.5 1855.5,164.5C 1852.44,159.934 1848.78,155.767 1844.5,152C 1838.99,149.111 1833.32,146.945 1827.5,145.5 Z"/></g>
<g><path style="opacity:0.129" fill="#a4a5a5" d="M 1855.5,164.5 C 1855.83,164.5 1856.17,164.5 1856.5,164.5C 1856.43,166.027 1857.09,167.027 1858.5,167.5C 1858.5,168.167 1858.5,168.833 1858.5,169.5C 1858.52,171.565 1858.85,173.565 1859.5,175.5C 1858.88,175.389 1858.38,175.056 1858,174.5C 1857.44,171.066 1856.61,167.733 1855.5,164.5 Z"/></g>
<g><path style="opacity:0.745" fill="#57595a" d="M 1856.5,164.5 C 1857.91,164.973 1858.57,165.973 1858.5,167.5C 1857.09,167.027 1856.43,166.027 1856.5,164.5 Z"/></g>
<g><path style="opacity:1" fill="#2b2b2c" d="M 1723.5,149.5 C 1722.53,168.454 1722.19,187.454 1722.5,206.5C 1721.34,188.005 1721.17,169.338 1722,150.5C 1722.38,149.944 1722.88,149.611 1723.5,149.5 Z"/></g>
<g><path style="opacity:1" fill="#323333" d="M 1859.5,170.5 C 1860.12,170.611 1860.62,170.944 1861,171.5C 1861.82,177.016 1861.65,182.35 1860.5,187.5C 1860.74,181.773 1860.41,176.106 1859.5,170.5 Z"/></g>
<g><path style="opacity:0.843" fill="#7c7d7e" d="M 1858.5,169.5 C 1859.17,169.5 1859.5,169.833 1859.5,170.5C 1860.41,176.106 1860.74,181.773 1860.5,187.5C 1859.69,189.028 1859.02,190.694 1858.5,192.5C 1857.83,193.167 1857.17,193.833 1856.5,194.5C 1858.1,188.245 1859.1,181.912 1859.5,175.5C 1858.85,173.565 1858.52,171.565 1858.5,169.5 Z"/></g>
<g><path style="opacity:0.965" fill="#444545" d="M 1858.5,192.5 C 1858.77,194.38 1858.1,195.713 1856.5,196.5C 1856.5,195.833 1856.5,195.167 1856.5,194.5C 1857.17,193.833 1857.83,193.167 1858.5,192.5 Z"/></g>
<g><path style="opacity:0.231" fill="#858586" d="M 1856.5,194.5 C 1856.5,195.167 1856.5,195.833 1856.5,196.5C 1853.52,202.475 1849.19,207.142 1843.5,210.5C 1840.58,211.696 1837.58,212.696 1834.5,213.5C 1834.47,212.503 1834.97,211.836 1836,211.5C 1839.91,210.919 1843.41,209.419 1846.5,207C 1850.1,202.912 1853.44,198.745 1856.5,194.5 Z"/></g>
<g><path style="opacity:0.017" fill="#9d9c9e" d="M 1724.5,208.5 C 1726.65,209.748 1728.65,211.248 1730.5,213C 1765.17,213.5 1799.83,213.667 1834.5,213.5C 1800,214.498 1765.34,214.832 1730.5,214.5C 1727.5,213.5 1725.5,211.5 1724.5,208.5 Z"/></g>
<g><path style="opacity:1" fill="#474647" d="M 1843.5,210.5 C 1841.65,212.446 1839.31,213.946 1836.5,215C 1801,215.831 1765.66,215.664 1730.5,214.5C 1765.34,214.832 1800,214.498 1834.5,213.5C 1837.58,212.696 1840.58,211.696 1843.5,210.5 Z"/></g>
<g><path style="opacity:0.993" fill="#000000" d="M 688.5,220.5 C 687.506,230.319 687.173,240.319 687.5,250.5C 685.265,250.205 683.265,250.539 681.5,251.5C 677.269,251.404 673.935,253.07 671.5,256.5C 671.021,258.889 669.688,260.556 667.5,261.5C 665.431,265.044 665.098,268.71 666.5,272.5C 666.263,273.791 666.596,274.791 667.5,275.5C 667.5,275.833 667.5,276.167 667.5,276.5C 667.738,278.404 668.738,279.738 670.5,280.5C 671.5,280.833 672.167,281.5 672.5,282.5C 676.529,286.663 681.529,288.33 687.5,287.5C 687.17,303.342 687.504,319.009 688.5,334.5C 685.909,339.807 681.576,342.641 675.5,343C 633.833,343.667 592.167,343.667 550.5,343C 545.582,341.48 542.415,338.314 541,333.5C 540.5,318.17 540.333,302.837 540.5,287.5C 543.518,287.665 546.518,287.498 549.5,287C 551.544,286.502 552.878,285.335 553.5,283.5C 556.555,282.445 558.555,280.445 559.5,277.5C 561.408,276.514 562.408,274.848 562.5,272.5C 562.5,270.167 562.5,267.833 562.5,265.5C 562.063,262.775 560.73,260.775 558.5,259.5C 556.684,256.348 554.017,254.348 550.5,253.5C 550.389,252.883 550.056,252.383 549.5,252C 546.518,251.502 543.518,251.335 540.5,251.5C 540.334,241.494 540.5,231.494 541,221.5C 542.916,217.915 545.749,215.415 549.5,214C 593.5,213.333 637.5,213.333 681.5,214C 684.378,215.716 686.712,217.883 688.5,220.5 Z"/></g>
<g><path style="opacity:0.606" fill="#141314" d="M 872.5,215.5 C 909.462,216.485 946.462,216.818 983.5,216.5C 965.17,217.167 946.67,217.5 928,217.5C 909.154,217.5 890.654,216.833 872.5,215.5 Z"/></g>
<g><path style="opacity:0.109" fill="#191917" d="M 688.5,220.5 C 689.641,230.757 689.808,241.09 689,251.5C 686.959,252.423 684.792,252.756 682.5,252.5C 682.5,251.833 682.167,251.5 681.5,251.5C 683.265,250.539 685.265,250.205 687.5,250.5C 687.173,240.319 687.506,230.319 688.5,220.5 Z"/></g>
<g><path style="opacity:1" fill="#1f270e" d="M 44.5,251.5 C 59.1705,251.333 73.8371,251.5 88.5,252C 94.7472,254.079 98.7472,258.246 100.5,264.5C 99.5041,264.586 98.6708,264.252 98,263.5C 96.8333,258.333 93.6667,255.167 88.5,254C 73.4658,254.154 58.7991,253.32 44.5,251.5 Z"/></g>
<g><path style="opacity:1" fill="#333b13" d="M 729.5,251.5 C 739.172,251.334 748.839,251.5 758.5,252C 760.32,252.2 761.653,253.034 762.5,254.5C 751.15,254.238 740.15,253.238 729.5,251.5 Z"/></g>
<g><path style="opacity:1" fill="#131609" d="M 1124.5,251.5 C 1067.93,252.171 1011.26,252.837 954.5,253.5C 1010.82,251.504 1067.49,250.837 1124.5,251.5 Z"/></g>
<g><path style="opacity:1" fill="#12170a" d="M 1162.5,251.5 C 1206.17,251.5 1249.83,251.5 1293.5,251.5C 1250.17,252.167 1206.83,252.833 1163.5,253.5C 1162.66,253.158 1162.33,252.492 1162.5,251.5 Z"/></g>
<g><path style="opacity:1" fill="#2e3810" d="M 1426.5,251.5 C 1426.83,251.5 1427.17,251.5 1427.5,251.5C 1433.51,251.334 1439.51,251.501 1445.5,252C 1447.85,252.24 1449.85,253.073 1451.5,254.5C 1442.8,254.261 1434.47,253.261 1426.5,251.5 Z"/></g>
<g><path style="opacity:1" fill="#151909" d="M 1696.5,252.5 C 1712.33,251.339 1728.33,251.172 1744.5,252C 1745.38,252.708 1746.05,253.542 1746.5,254.5C 1745.24,254.539 1744.24,254.039 1743.5,253C 1727.84,252.5 1712.17,252.333 1696.5,252.5 Z"/></g>
<g><path style="opacity:0.282" fill="#2a360f" d="M 540.5,251.5 C 543.518,251.335 546.518,251.502 549.5,252C 550.056,252.383 550.389,252.883 550.5,253.5C 546.671,254.069 543.337,253.402 540.5,251.5 Z"/></g>
<g><path style="opacity:0.291" fill="#454f1d" d="M 1124.5,251.5 C 1125.17,251.5 1125.83,251.5 1126.5,251.5C 1070.84,253.33 1014.84,254.164 958.5,254C 955.883,254.822 953.216,255.322 950.5,255.5C 951.514,254.326 952.847,253.66 954.5,253.5C 1011.26,252.837 1067.93,252.171 1124.5,251.5 Z"/></g>
<g><path style="opacity:0.286" fill="#48541f" d="M 1293.5,251.5 C 1294.17,251.5 1294.83,251.5 1295.5,251.5C 1267.17,253.194 1238.5,254.194 1209.5,254.5C 1194.2,254.591 1178.86,254.257 1163.5,253.5C 1206.83,252.833 1250.17,252.167 1293.5,251.5 Z"/></g>
<g><path style="opacity:0.95" fill="#000000" d="M 286.5,253.5 C 296.833,254.833 307.167,254.833 317.5,253.5C 326.605,255.551 330.938,260.884 330.5,269.5C 330.625,278.381 326.292,283.714 317.5,285.5C 307.167,284.167 296.833,284.167 286.5,285.5C 275.7,282.579 271.533,275.579 274,264.5C 275.868,258.159 280.035,254.492 286.5,253.5 Z"/></g>
<g><path style="opacity:0.703" fill="#131313" d="M 317.5,253.5 C 307.167,254.833 296.833,254.833 286.5,253.5C 296.791,252.213 307.124,252.213 317.5,253.5 Z"/></g>
<g><path style="opacity:0.944" fill="#020202" d="M 367.5,252.5 C 376.839,252.334 386.173,252.5 395.5,253C 405.421,254.257 410.421,259.924 410.5,270C 409.26,279.065 404.093,284.565 395,286.5C 385.704,286.611 376.204,286.444 366.5,286C 354.284,282.071 350.118,273.904 354,261.5C 357.352,256.627 361.852,253.627 367.5,252.5 Z"/></g>
<g><path style="opacity:0.04" fill="#5b6924" d="M 1696.5,252.5 C 1712.17,252.333 1727.84,252.5 1743.5,253C 1744.24,254.039 1745.24,254.539 1746.5,254.5C 1746.83,255.167 1747.17,255.833 1747.5,256.5C 1746.08,256.291 1744.74,255.791 1743.5,255C 1727.76,254.183 1712.09,254.35 1696.5,255.5C 1696.5,254.833 1696.5,254.167 1696.5,253.5C 1696.5,253.167 1696.5,252.833 1696.5,252.5 Z"/></g>
<g><path style="opacity:0.318" fill="#282e15" d="M 681.5,251.5 C 682.167,251.5 682.5,251.833 682.5,252.5C 678.539,253.089 674.872,254.422 671.5,256.5C 673.935,253.07 677.269,251.404 681.5,251.5 Z"/></g>
<g><path style="opacity:0.758" fill="#444e1c" d="M 1864.5,256.5 C 1891,255.336 1917.66,255.17 1944.5,256C 1945.42,256.278 1946.08,256.778 1946.5,257.5C 1945.5,257.5 1944.5,257.5 1943.5,257.5C 1917.34,256.502 1891.01,256.169 1864.5,256.5 Z"/></g>
<g><path style="opacity:0.78" fill="#3a471b" d="M 1636.5,254.5 C 1638.75,255.08 1640.42,256.413 1641.5,258.5C 1639.25,257.92 1637.58,256.587 1636.5,254.5 Z"/></g>
<g><path style="opacity:0.886" fill="#465417" d="M 1747.5,256.5 C 1750.74,258.262 1753.07,260.929 1754.5,264.5C 1755.58,267.743 1755.75,271.076 1755,274.5C 1754.62,275.056 1754.12,275.389 1753.5,275.5C 1753.94,273.874 1754.27,272.207 1754.5,270.5C 1754.36,268.97 1753.69,267.97 1752.5,267.5C 1752.74,266.209 1752.4,265.209 1751.5,264.5C 1750.69,261.55 1749.36,258.883 1747.5,256.5 Z"/></g>
<g><path style="opacity:0.188" fill="#5e6d27" d="M 1864.5,256.5 C 1891.01,256.169 1917.34,256.502 1943.5,257.5C 1917.46,257.519 1891.63,257.519 1866,257.5C 1856.31,262.1 1853.14,269.433 1856.5,279.5C 1855.11,278.101 1854.11,276.434 1853.5,274.5C 1853.4,271.763 1853.73,269.096 1854.5,266.5C 1855.63,263.074 1857.63,260.24 1860.5,258C 1861.74,257.209 1863.08,256.709 1864.5,256.5 Z"/></g>
<g><path style="opacity:0.329" fill="#667126" d="M 1943.5,257.5 C 1944.5,257.5 1945.5,257.5 1946.5,257.5C 1947.5,257.5 1948.5,257.5 1949.5,257.5C 1949.63,258.376 1949.3,259.043 1948.5,259.5C 1946.66,258.972 1945,258.306 1943.5,257.5 Z"/></g>
<g><path style="opacity:0.102" fill="#384517" d="M 1641.5,258.5 C 1642.91,258.973 1643.57,259.973 1643.5,261.5C 1642.09,261.027 1641.43,260.027 1641.5,258.5 Z"/></g>
<g><path style="opacity:0.082" fill="#374518" d="M 947.5,258.5 C 945.97,262.118 944.97,265.951 944.5,270C 944.917,272.498 945.251,274.998 945.5,277.5C 941.146,270.664 941.812,264.33 947.5,258.5 Z"/></g>
<g><path style="opacity:0.008" fill="#8ca919" d="M 12.5,263.5 C 14.337,263.639 14.6704,264.306 13.5,265.5C 12.7025,265.043 12.3691,264.376 12.5,263.5 Z"/></g>
<g><path style="opacity:0.02" fill="#283513" d="M 667.5,261.5 C 667.923,262.265 668.257,263.098 668.5,264C 666.854,266.595 666.187,269.428 666.5,272.5C 666.187,269.428 666.854,266.595 668.5,264C 668.257,263.098 667.923,262.265 667.5,261.5 Z"/></g>
<g><path style="opacity:1" fill="#1d260e" d="M 558.5,259.5 C 560.73,260.775 562.063,262.775 562.5,265.5C 561.833,265.5 561.167,265.5 560.5,265.5C 559.833,263.5 559.167,261.5 558.5,259.5 Z"/></g>
<g><path style="opacity:0.004" fill="#c6de39" d="M 1751.5,264.5 C 1751.63,265.376 1751.3,266.043 1750.5,266.5C 1749.13,264.192 1749.46,263.525 1751.5,264.5 Z"/></g>
<g><path style="opacity:1" fill="#374216" d="M 1456.5,259.5 C 1457.88,260.574 1459.05,261.907 1460,263.5C 1461.25,269.583 1460.09,274.916 1456.5,279.5C 1459.17,272.833 1459.17,266.167 1456.5,259.5 Z"/></g>
<g><path style="opacity:1" fill="#111606" d="M 1754.5,264.5 C 1755.79,265.871 1756.45,267.705 1756.5,270C 1756.75,274.54 1755.08,278.04 1751.5,280.5C 1751.83,279.833 1752.17,279.167 1752.5,278.5C 1752.56,277.391 1752.89,276.391 1753.5,275.5C 1754.12,275.389 1754.62,275.056 1755,274.5C 1755.75,271.076 1755.58,267.743 1754.5,264.5 Z"/></g>
<g><path style="opacity:0.535" fill="#161d08" d="M 100.5,265.5 C 101.833,267.5 101.833,269.5 100.5,271.5C 99.1667,269.5 99.1667,267.5 100.5,265.5 Z"/></g>
<g><path style="opacity:1" fill="#3f4f12" d="M 560.5,265.5 C 561.167,265.5 561.833,265.5 562.5,265.5C 562.5,267.833 562.5,270.167 562.5,272.5C 561.833,272.5 561.167,272.5 560.5,272.5C 560.5,270.167 560.5,267.833 560.5,265.5 Z"/></g>
<g><path style="opacity:0.588" fill="#364315" d="M 1643.5,261.5 C 1644.12,261.611 1644.62,261.944 1645,262.5C 1646.89,267.487 1646.89,272.487 1645,277.5C 1644.58,278.756 1643.75,279.423 1642.5,279.5C 1644.71,273.629 1645.04,267.629 1643.5,261.5 Z"/></g>
<g><path style="opacity:0.792" fill="#4c581f" d="M 1696.5,253.5 C 1696.5,254.167 1696.5,254.833 1696.5,255.5C 1694.32,255.84 1692.49,256.84 1691,258.5C 1684.39,267.401 1685.23,275.401 1693.5,282.5C 1693.5,283.167 1693.5,283.833 1693.5,284.5C 1688.11,281.221 1685.44,276.387 1685.5,270C 1685.1,261.666 1688.76,256.166 1696.5,253.5 Z"/></g>
<g><path style="opacity:1" fill="#232c13" d="M 1854.5,266.5 C 1853.73,269.096 1853.4,271.763 1853.5,274.5C 1852.85,273.551 1852.51,272.385 1852.5,271C 1852.31,268.992 1852.97,267.492 1854.5,266.5 Z"/></g>
<g><path style="opacity:0.263" fill="#5f751a" d="M 1752.5,267.5 C 1753.69,267.97 1754.36,268.97 1754.5,270.5C 1754.27,272.207 1753.94,273.874 1753.5,275.5C 1752.89,276.391 1752.56,277.391 1752.5,278.5C 1751.83,278.5 1751.17,278.5 1750.5,278.5C 1752.48,274.947 1753.15,271.281 1752.5,267.5 Z"/></g>
<g><path style="opacity:0.02" fill="#2e3d14" d="M 666.5,272.5 C 668.552,273.053 668.885,274.053 667.5,275.5C 666.596,274.791 666.263,273.791 666.5,272.5 Z"/></g>
<g><path style="opacity:1" fill="#27310e" d="M 764.5,256.5 C 765.496,256.414 766.329,256.748 767,257.5C 768.911,261.242 770.411,265.075 771.5,269C 770.878,273.391 769.212,277.224 766.5,280.5C 770.953,272.091 770.287,264.091 764.5,256.5 Z"/></g>
<g><path style="opacity:0.38" fill="#273312" d="M 100.5,272.5 C 100.122,274.921 99.4552,277.254 98.5,279.5C 97.8333,279.5 97.1667,279.5 96.5,279.5C 97.108,276.594 98.4413,274.26 100.5,272.5 Z"/></g>
<g><path style="opacity:0.42" fill="#232d12" d="M 560.5,272.5 C 561.167,272.5 561.833,272.5 562.5,272.5C 562.408,274.848 561.408,276.514 559.5,277.5C 560.038,275.883 560.371,274.216 560.5,272.5 Z"/></g>
<g><path style="opacity:0.555" fill="#223012" d="M 667.5,276.5 C 669.532,277.048 670.532,278.381 670.5,280.5C 668.738,279.738 667.738,278.404 667.5,276.5 Z"/></g>
<g><path style="opacity:0.914" fill="#2e3c18" d="M 946.5,279.5 C 947.906,279.973 948.573,280.973 948.5,282.5C 947.094,282.027 946.427,281.027 946.5,279.5 Z"/></g>
<g><path style="opacity:0.945" fill="#202710" d="M 1456.5,279.5 C 1455.92,281.749 1454.59,283.415 1452.5,284.5C 1452.5,284.167 1452.5,283.833 1452.5,283.5C 1453.5,281.833 1454.83,280.5 1456.5,279.5 Z"/></g>
<g><path style="opacity:1" fill="#2d3d16" d="M 949.5,282.5 C 950.5,282.833 951.167,283.5 951.5,284.5C 950.167,284.5 949.5,283.833 949.5,282.5 Z"/></g>
<g><path style="opacity:0.715" fill="#161616" d="M 317.5,285.5 C 307.034,285.653 296.701,285.653 286.5,285.5C 296.833,284.167 307.167,284.167 317.5,285.5 Z"/></g>
<g><path style="opacity:0.549" fill="#3e461c" d="M 1452.5,283.5 C 1452.5,283.833 1452.5,284.167 1452.5,284.5C 1448.7,286.143 1444.7,286.81 1440.5,286.5C 1440.5,286.167 1440.5,285.833 1440.5,285.5C 1444.54,285.042 1448.54,284.376 1452.5,283.5 Z"/></g>
<g><path style="opacity:0.934" fill="#262d14" d="M 96.5,279.5 C 97.1667,279.5 97.8333,279.5 98.5,279.5C 96.1779,283.319 92.8445,285.819 88.5,287C 74.1705,287.5 59.8372,287.667 45.5,287.5C 59.465,285.68 73.7983,284.847 88.5,285C 92.0703,284.389 94.737,282.556 96.5,279.5 Z"/></g>
<g><path style="opacity:0.759" fill="#2b3216" d="M 766.5,280.5 C 766.489,282.017 765.823,283.184 764.5,284C 762.283,285.275 759.949,286.275 757.5,287C 748.506,287.5 739.506,287.666 730.5,287.5C 729.833,287.5 729.167,287.5 728.5,287.5C 737.781,285.688 747.448,284.855 757.5,285C 761.075,284.546 764.075,283.046 766.5,280.5 Z"/></g>
<g><path style="opacity:0.615" fill="#363e1d" d="M 951.5,284.5 C 1010.15,284.82 1068.48,285.82 1126.5,287.5C 1125.83,287.5 1125.17,287.5 1124.5,287.5C 1068.5,287.667 1012.5,287.5 956.5,287C 954.509,286.626 952.842,285.793 951.5,284.5 Z"/></g>
<g><path style="opacity:0.3" fill="#5a6825" d="M 1750.5,278.5 C 1751.17,278.5 1751.83,278.5 1752.5,278.5C 1752.17,279.167 1751.83,279.833 1751.5,280.5C 1748.96,283.607 1745.63,285.44 1741.5,286C 1726.17,286.667 1710.83,286.667 1695.5,286C 1694.96,285.283 1694.29,284.783 1693.5,284.5C 1693.5,283.833 1693.5,283.167 1693.5,282.5C 1694.77,283.09 1696.1,283.59 1697.5,284C 1709.85,284.248 1722.18,284.748 1734.5,285.5C 1738.6,285.114 1742.6,284.281 1746.5,283C 1747.71,281.961 1748.71,280.794 1749.5,279.5C 1750.17,279.5 1750.5,279.167 1750.5,278.5 Z"/></g>
<g><path style="opacity:0.027" fill="#64752e" d="M 1856.5,279.5 C 1858.67,281.5 1861,283.334 1863.5,285C 1889.17,285.333 1914.83,285.667 1940.5,286C 1941.06,286.383 1941.39,286.883 1941.5,287.5C 1915.83,287.5 1890.17,287.5 1864.5,287.5C 1860.83,285.833 1858.17,283.167 1856.5,279.5 Z"/></g>
<g><path style="opacity:0.008" fill="#40433f" d="M 174.5,286.5 C 175.833,287.167 175.833,287.167 174.5,286.5 Z"/></g>
<g><path style="opacity:1" fill="#262b16" d="M 553.5,283.5 C 552.878,285.335 551.544,286.502 549.5,287C 546.518,287.498 543.518,287.665 540.5,287.5C 544.528,285.866 548.862,284.533 553.5,283.5 Z"/></g>
<g><path style="opacity:1" fill="#222b11" d="M 672.5,282.5 C 677.553,284.787 682.886,285.954 688.5,286C 689.056,286.383 689.389,286.883 689.5,287.5C 688.833,287.5 688.167,287.5 687.5,287.5C 681.529,288.33 676.529,286.663 672.5,282.5 Z"/></g>
<g><path style="opacity:1" fill="#2f371b" d="M 1294.5,285.5 C 1294.5,286.167 1294.5,286.833 1294.5,287.5C 1250.5,287.5 1206.5,287.5 1162.5,287.5C 1206.15,285.505 1250.15,284.839 1294.5,285.5 Z"/></g>
<g><path style="opacity:0.004" fill="#cdd5b2" d="M 1372.5,287.5 C 1373.95,286.387 1375.61,286.22 1377.5,287C 1375.87,287.494 1374.2,287.66 1372.5,287.5 Z"/></g>
<g><path style="opacity:1" fill="#2b301a" d="M 1426.5,285.5 C 1431.17,285.5 1435.83,285.5 1440.5,285.5C 1440.5,285.833 1440.5,286.167 1440.5,286.5C 1435.93,287.441 1431.26,287.774 1426.5,287.5C 1426.5,286.833 1426.5,286.167 1426.5,285.5 Z"/></g>
<g><path style="opacity:1" fill="#39411e" d="M 1640.5,282.5 C 1638.47,285.013 1635.8,286.513 1632.5,287C 1619.84,287.5 1607.17,287.667 1594.5,287.5C 1607.8,285.681 1621.46,284.848 1635.5,285C 1636.91,283.628 1638.58,282.795 1640.5,282.5 Z"/></g>
<g><path style="opacity:1" fill="#1f2513" d="M 1864.5,287.5 C 1890.17,287.5 1915.83,287.5 1941.5,287.5C 1941.5,288.167 1941.5,288.833 1941.5,289.5C 1916.16,289.667 1890.83,289.5 1865.5,289C 1864.94,288.617 1864.61,288.117 1864.5,287.5 Z"/></g>
<g><path style="opacity:0.566" fill="#191919" d="M 728.5,287.5 C 729.167,287.5 729.833,287.5 730.5,287.5C 730.833,363.335 730.499,439.002 729.5,514.5C 729.228,438.811 728.895,363.144 728.5,287.5 Z"/></g>
<g><path style="opacity:0.279" fill="#171717" d="M 687.5,287.5 C 688.167,287.5 688.833,287.5 689.5,287.5C 689.817,303.244 689.484,318.911 688.5,334.5C 687.504,319.009 687.17,303.342 687.5,287.5 Z"/></g>
<g><path style="opacity:0.79" fill="#696b6b" d="M 1426.5,285.5 C 1426.5,286.167 1426.5,286.833 1426.5,287.5C 1426.83,308.007 1426.5,328.34 1425.5,348.5C 1425.5,345.833 1425.5,343.167 1425.5,340.5C 1425.82,322.453 1425.49,304.453 1424.5,286.5C 1424.96,285.702 1425.62,285.369 1426.5,285.5 Z"/></g>
<g><path style="opacity:0.25" fill="#7c7c7a" d="M 1294.5,285.5 C 1296.32,306.476 1297.16,327.81 1297,349.5C 1297.54,352.529 1298.21,355.529 1299,358.5C 1301.79,363.745 1304.29,369.079 1306.5,374.5C 1304.59,372.343 1302.92,370.009 1301.5,367.5C 1301.2,365.597 1300.54,363.93 1299.5,362.5C 1297.9,360.168 1296.74,357.501 1296,354.5C 1294.6,332.196 1294.1,309.863 1294.5,287.5C 1294.5,286.833 1294.5,286.167 1294.5,285.5 Z"/></g>
<g><path style="opacity:0.22" fill="#292a20" d="M 1558.5,253.5 C 1559.17,258.823 1559.5,264.323 1559.5,270C 1558.96,297.849 1558.29,325.683 1557.5,353.5C 1557.38,320.678 1557.38,287.678 1557.5,254.5C 1558.17,254.5 1558.5,254.167 1558.5,253.5 Z"/></g>
<g><path style="opacity:1" fill="#4b4b4b" d="M 1833.5,340.5 C 1799,340.168 1764.66,340.502 1730.5,341.5C 1729.83,341.5 1729.17,341.5 1728.5,341.5C 1728.61,340.883 1728.94,340.383 1729.5,340C 1764.34,339.169 1799,339.336 1833.5,340.5 Z"/></g>
<g><path style="opacity:0.043" fill="#141415" d="M 983.5,340.5 C 946.172,341.288 908.839,341.622 871.5,341.5C 889.821,340.167 908.488,339.5 927.5,339.5C 946.336,339.5 965.003,339.833 983.5,340.5 Z"/></g>
<g><path style="opacity:0.914" fill="#88898b" d="M 1425.5,340.5 C 1425.5,343.167 1425.5,345.833 1425.5,348.5C 1424.21,351.642 1423.21,354.975 1422.5,358.5C 1422.17,358.5 1421.83,358.5 1421.5,358.5C 1422,352.116 1423.33,346.116 1425.5,340.5 Z"/></g>
<g><path style="opacity:0.043" fill="#8b8a88" d="M 1728.5,341.5 C 1729.17,341.5 1729.83,341.5 1730.5,341.5C 1730.5,341.833 1730.5,342.167 1730.5,342.5C 1728.5,344.167 1726.5,345.833 1724.5,347.5C 1724.56,346.391 1724.89,345.391 1725.5,344.5C 1725.86,342.81 1726.86,341.81 1728.5,341.5 Z"/></g>
<g><path style="opacity:0.741" fill="#939494" d="M 1833.5,340.5 C 1854.08,348.074 1863.08,362.741 1860.5,384.5C 1859.83,384.5 1859.17,384.5 1858.5,384.5C 1858.39,383.883 1858.06,383.383 1857.5,383C 1859.06,381.004 1859.73,378.671 1859.5,376C 1857.96,357.127 1847.96,345.794 1829.5,342C 1796.5,341.38 1763.5,341.547 1730.5,342.5C 1730.5,342.167 1730.5,341.833 1730.5,341.5C 1764.66,340.502 1799,340.168 1833.5,340.5 Z"/></g>
<g><path style="opacity:0.068" fill="#1b1b1b" d="M 1124.5,287.5 C 1125.17,287.5 1125.83,287.5 1126.5,287.5C 1126.83,363.002 1126.5,438.335 1125.5,513.5C 1125.83,438.096 1125.5,362.762 1124.5,287.5 Z"/></g>
<g><path style="opacity:0.984" fill="#3c3d3e" d="M 1425.5,348.5 C 1425.49,351.038 1425.16,353.538 1424.5,356C 1424.32,357.376 1423.65,358.209 1422.5,358.5C 1423.21,354.975 1424.21,351.642 1425.5,348.5 Z"/></g>
<g><path style="opacity:0.383" fill="#1f1f1e" d="M 497.5,360.5 C 457.167,361.833 416.833,361.833 376.5,360.5C 416.863,359.322 457.197,359.322 497.5,360.5 Z"/></g>
<g><path style="opacity:0.247" fill="#969797" d="M 1421.5,358.5 C 1421.74,360.898 1421.07,362.898 1419.5,364.5C 1419.59,362.214 1420.26,360.214 1421.5,358.5 Z"/></g>
<g><path style="opacity:1" fill="#2d2f2f" d="M 1421.5,358.5 C 1421.83,358.5 1422.17,358.5 1422.5,358.5C 1422.66,360.527 1422.5,362.527 1422,364.5C 1421.58,365.756 1420.75,366.423 1419.5,366.5C 1419.5,365.833 1419.5,365.167 1419.5,364.5C 1421.07,362.898 1421.74,360.898 1421.5,358.5 Z"/></g>
<g><path style="opacity:0.996" fill="#404040" d="M 1299.5,362.5 C 1300.54,363.93 1301.2,365.597 1301.5,367.5C 1299.79,366.365 1299.12,364.698 1299.5,362.5 Z"/></g>
<g><path style="opacity:0.435" fill="#8b8a8d" d="M 1419.5,364.5 C 1419.5,365.167 1419.5,365.833 1419.5,366.5C 1418.89,367.391 1418.56,368.391 1418.5,369.5C 1417.83,369.833 1417.17,370.167 1416.5,370.5C 1416.99,368.181 1417.99,366.181 1419.5,364.5 Z"/></g>
<g><path style="opacity:1" fill="#353636" d="M 1418.5,369.5 C 1418.57,371.027 1417.91,372.027 1416.5,372.5C 1416.5,371.833 1416.5,371.167 1416.5,370.5C 1417.17,370.167 1417.83,369.833 1418.5,369.5 Z"/></g>
<g><path style="opacity:0.992" fill="#3b3c3c" d="M 1416.5,372.5 C 1416.57,374.027 1415.91,375.027 1414.5,375.5C 1414.43,373.973 1415.09,372.973 1416.5,372.5 Z"/></g>
<g><path style="opacity:0.808" fill="#787878" d="M 1725.5,344.5 C 1724.89,345.391 1724.56,346.391 1724.5,347.5C 1724.5,347.833 1724.5,348.167 1724.5,348.5C 1723.5,366.659 1723.17,384.992 1723.5,403.5C 1722.34,384.671 1722.17,365.671 1723,346.5C 1723.42,345.244 1724.25,344.577 1725.5,344.5 Z"/></g>
<g><path style="opacity:0.784" fill="#77787a" d="M 1306.5,374.5 C 1308.26,375.262 1309.26,376.596 1309.5,378.5C 1307.74,377.738 1306.74,376.404 1306.5,374.5 Z"/></g>
<g><path style="opacity:0.012" fill="#929294" d="M 1309.5,378.5 C 1312.19,379.189 1313.86,380.856 1314.5,383.5C 1312.45,382.118 1310.78,380.452 1309.5,378.5 Z"/></g>
<g><path style="opacity:0.412" fill="#717072" d="M 1314.5,383.5 C 1320.19,387.68 1326.19,391.346 1332.5,394.5C 1332.5,395.167 1332.5,395.833 1332.5,396.5C 1326.73,394.114 1321.4,390.947 1316.5,387C 1315.18,386.184 1314.51,385.017 1314.5,383.5 Z"/></g>
<g><path style="opacity:0.988" fill="#434545" d="M 1858.5,384.5 C 1859.17,384.5 1859.83,384.5 1860.5,384.5C 1860.34,386.153 1859.67,387.486 1858.5,388.5C 1858.5,387.167 1858.5,385.833 1858.5,384.5 Z"/></g>
<g><path style="opacity:0.522" fill="#777778" d="M 1416.5,370.5 C 1416.5,371.167 1416.5,371.833 1416.5,372.5C 1415.09,372.973 1414.43,373.973 1414.5,375.5C 1410.4,381.432 1405.4,386.599 1399.5,391C 1396.91,392.445 1394.24,393.612 1391.5,394.5C 1395.65,391.197 1399.98,388.03 1404.5,385C 1408.74,380.268 1412.74,375.435 1416.5,370.5 Z"/></g>
<g><path style="opacity:1" fill="#434544" d="M 1858.5,388.5 C 1858.77,390.38 1858.1,391.713 1856.5,392.5C 1856.66,390.847 1857.33,389.514 1858.5,388.5 Z"/></g>
<g><path style="opacity:1" fill="#262728" d="M 1856.5,392.5 C 1856.76,394.989 1855.76,396.656 1853.5,397.5C 1854.11,395.566 1855.11,393.899 1856.5,392.5 Z"/></g>
<g><path style="opacity:0.451" fill="#848485" d="M 1332.5,394.5 C 1341.46,397.996 1350.8,399.996 1360.5,400.5C 1357.71,401.477 1354.71,401.81 1351.5,401.5C 1349.56,400.85 1347.56,400.517 1345.5,400.5C 1341.15,399.161 1336.82,397.828 1332.5,396.5C 1332.5,395.833 1332.5,395.167 1332.5,394.5 Z"/></g>
<g><path style="opacity:0.341" fill="#848382" d="M 1391.5,394.5 C 1390.34,396.25 1388.67,397.25 1386.5,397.5C 1383.6,398.129 1380.94,399.129 1378.5,400.5C 1378.17,400.5 1377.83,400.5 1377.5,400.5C 1373.34,401.539 1369.34,401.539 1365.5,400.5C 1374.45,399.643 1383.12,397.643 1391.5,394.5 Z"/></g>
<g><path style="opacity:1" fill="#313030" d="M 1386.5,397.5 C 1384.38,399.655 1381.72,400.655 1378.5,400.5C 1380.94,399.129 1383.6,398.129 1386.5,397.5 Z"/></g>
<g><path style="opacity:0.984" fill="#393839" d="M 1345.5,400.5 C 1347.56,400.517 1349.56,400.85 1351.5,401.5C 1351.5,401.833 1351.5,402.167 1351.5,402.5C 1349.1,402.741 1347.1,402.074 1345.5,400.5 Z"/></g>
<g><path style="opacity:0.945" fill="#5b5959" d="M 1360.5,400.5 C 1362.17,400.5 1363.83,400.5 1365.5,400.5C 1369.34,401.539 1373.34,401.539 1377.5,400.5C 1376.74,401.268 1375.74,401.768 1374.5,402C 1366.84,402.5 1359.17,402.666 1351.5,402.5C 1351.5,402.167 1351.5,401.833 1351.5,401.5C 1354.71,401.81 1357.71,401.477 1360.5,400.5 Z"/></g>
<g><path style="opacity:0.935" fill="#020202" d="M 28.5,407.5 C 36.2282,407.189 43.8948,407.689 51.5,409C 65.2981,420.648 64.6315,431.315 49.5,441C 39.5,441.667 29.5,441.667 19.5,441C 15.4451,438.399 11.9451,435.232 9,431.5C 5.93254,421.705 8.93254,414.372 18,409.5C 21.6542,408.938 25.1542,408.271 28.5,407.5 Z"/></g>
<g><path style="opacity:0.398" fill="#969697" d="M 1858.5,384.5 C 1858.5,385.833 1858.5,387.167 1858.5,388.5C 1857.33,389.514 1856.66,390.847 1856.5,392.5C 1855.11,393.899 1854.11,395.566 1853.5,397.5C 1849.02,402 1844.02,405.667 1838.5,408.5C 1836.6,408.796 1834.93,409.463 1833.5,410.5C 1832.83,410.5 1832.17,410.5 1831.5,410.5C 1830.17,410.5 1828.83,410.5 1827.5,410.5C 1827.83,409.833 1828.17,409.167 1828.5,408.5C 1833.82,408.117 1838.82,406.617 1843.5,404C 1850.37,398.67 1855.37,392.17 1858.5,384.5 Z"/></g>
<g><path style="opacity:0.377" fill="#a8a8a8" d="M 1724.5,348.5 C 1724.33,366.836 1724.5,385.17 1725,403.5C 1725.47,404.931 1726.3,406.097 1727.5,407C 1761.08,408.486 1794.75,408.986 1828.5,408.5C 1828.17,409.167 1827.83,409.833 1827.5,410.5C 1794.46,410.819 1761.46,410.486 1728.5,409.5C 1726.11,408.109 1724.44,406.109 1723.5,403.5C 1723.17,384.992 1723.5,366.659 1724.5,348.5 Z"/></g>
<g><path style="opacity:1" fill="#333333" d="M 1838.5,408.5 C 1837.36,410.213 1835.7,410.88 1833.5,410.5C 1834.93,409.463 1836.6,408.796 1838.5,408.5 Z"/></g>
<g><path style="opacity:0.988" fill="#636263" d="M 1728.5,409.5 C 1761.46,410.486 1794.46,410.819 1827.5,410.5C 1828.83,410.5 1830.17,410.5 1831.5,410.5C 1798,411.498 1764.34,411.832 1730.5,411.5C 1729.5,411.167 1728.83,410.5 1728.5,409.5 Z"/></g>
<g><path style="opacity:1" fill="#1b1a1a" d="M 1831.5,410.5 C 1832.17,410.5 1832.83,410.5 1833.5,410.5C 1832.94,411.79 1831.94,412.623 1830.5,413C 1813.83,413.167 1797.17,413.333 1780.5,413.5C 1763.49,413.5 1746.82,412.833 1730.5,411.5C 1764.34,411.832 1798,411.498 1831.5,410.5 Z"/></g>
<g><path style="opacity:1" fill="#273110" d="M 106.5,441.5 C 167.168,441.333 227.834,441.5 288.5,442C 290.881,442.223 292.547,443.39 293.5,445.5C 288.45,443.434 283.117,442.434 277.5,442.5C 220.331,442.832 163.331,442.499 106.5,441.5 Z"/></g>
<g><path style="opacity:0.404" fill="#364217" d="M 104.5,441.5 C 105.167,441.5 105.833,441.5 106.5,441.5C 163.331,442.499 220.331,442.832 277.5,442.5C 248.835,443.167 220.002,443.5 191,443.5C 161.826,443.5 132.992,442.833 104.5,441.5 Z"/></g>
<g><path style="opacity:0.239" fill="#3a471f" d="M 293.5,445.5 C 296.558,447.243 298.558,449.91 299.5,453.5C 297.046,451.298 295.046,448.632 293.5,445.5 Z"/></g>
<g><path style="opacity:0.024" fill="#41521a" d="M 299.5,453.5 C 300.167,453.5 300.5,453.833 300.5,454.5C 300.806,457.385 300.473,460.052 299.5,462.5C 298.225,459.604 298.225,456.604 299.5,453.5 Z"/></g>
<g><path style="opacity:1" fill="#19200a" d="M 300.5,454.5 C 301.16,455.964 301.493,457.631 301.5,459.5C 301.444,461.64 300.777,463.306 299.5,464.5C 299.5,464.167 299.5,463.833 299.5,463.5C 299.5,463.167 299.5,462.833 299.5,462.5C 300.473,460.052 300.806,457.385 300.5,454.5 Z"/></g>
<g><path style="opacity:1" fill="#78815f" d="M 128.5,474.5 C 127.791,475.404 126.791,475.737 125.5,475.5C 124.833,475.5 124.5,475.167 124.5,474.5C 125.833,473.167 127.167,473.167 128.5,474.5 Z"/></g>
<g><path style="opacity:0.639" fill="#39431f" d="M 299.5,463.5 C 299.5,463.833 299.5,464.167 299.5,464.5C 298.144,470.523 294.477,474.19 288.5,475.5C 234.209,476.491 179.875,476.825 125.5,476.5C 125.5,476.167 125.5,475.833 125.5,475.5C 126.791,475.737 127.791,475.404 128.5,474.5C 181.834,474.667 235.168,474.5 288.5,474C 290.725,473.439 292.725,472.439 294.5,471C 295.845,468.101 297.512,465.601 299.5,463.5 Z"/></g>
<g><path style="opacity:0.063" fill="#212121" d="M 44.5,477.5 C 36.6484,477.825 28.9818,477.492 21.5,476.5C 29.3359,475.001 37.0026,475.335 44.5,477.5 Z"/></g>
<g><path style="opacity:1" fill="#505152" d="M 124.5,474.5 C 124.5,475.167 124.833,475.5 125.5,475.5C 125.5,475.833 125.5,476.167 125.5,476.5C 116.651,476.826 107.984,476.493 99.5,475.5C 107.65,474.507 115.983,474.174 124.5,474.5 Z"/></g>
<g><path style="opacity:1" fill="#14180f" d="M 99.5,475.5 C 107.984,476.493 116.651,476.826 125.5,476.5C 179.875,476.825 234.209,476.491 288.5,475.5C 256.84,476.833 224.84,477.5 192.5,477.5C 160.332,477.5 128.332,477.167 96.5,476.5C 97.209,475.596 98.209,475.263 99.5,475.5 Z"/></g>
<g><path style="opacity:0.941" fill="#000000" d="M 21.5,476.5 C 28.9818,477.492 36.6484,477.825 44.5,477.5C 57.8875,477.394 63.7208,484.061 62,497.5C 59.8333,500.333 57.6667,503.167 55.5,506C 54.255,506.791 52.9217,507.291 51.5,507.5C 40.8333,506.167 30.1667,506.167 19.5,507.5C 8.5305,502.535 5.69716,494.535 11,483.5C 13.9606,480.276 17.4606,477.942 21.5,476.5 Z"/></g>
<g><path style="opacity:0.071" fill="#151515" d="M 19.5,507.5 C 30.1667,506.167 40.8333,506.167 51.5,507.5C 40.9315,508.818 30.2648,508.818 19.5,507.5 Z"/></g>
<g><path style="opacity:0.434" fill="#1f1f1f" d="M 1343.5,527.5 C 1355.5,527.471 1367.5,527.471 1379.5,527.5C 1367.5,530.166 1355.5,530.166 1343.5,527.5 Z"/></g>
</svg>
